<svg width="16" height="16" viewBox="0 0 16 16" fill="none" xmlns="http://www.w3.org/2000/svg">
<path d="M3.51411 5.82532C3.45682 5.8753 3.41136 5.93468 3.38035 6.00005C3.34934 6.06542 3.33337 6.1355 3.33337 6.20627C3.33337 6.27705 3.34934 6.34713 3.38035 6.4125C3.41136 6.47787 3.45682 6.53725 3.51411 6.58723L7.65302 10.2074C7.69855 10.2473 7.75263 10.2789 7.81216 10.3005C7.8717 10.3221 7.93552 10.3333 7.99998 10.3333C8.06443 10.3333 8.12825 10.3221 8.18779 10.3005C8.24732 10.2789 8.30141 10.2473 8.34694 10.2074L12.4858 6.58723C12.727 6.3763 12.727 6.03624 12.4858 5.82532C12.2447 5.6144 11.8559 5.6144 11.6148 5.82532L8.00244 8.98487L4.3852 5.82102C4.14405 5.6144 3.75525 5.6144 3.51411 5.82532Z" fill="#D3D3D3"/>
</svg>
