<svg width="24" height="24" viewBox="0 0 24 24" fill="none" xmlns="http://www.w3.org/2000/svg">
<path d="M16.6599 3.3477C16.5528 3.23721 16.4256 3.14955 16.2855 3.08974C16.1454 3.02993 15.9953 2.99915 15.8436 2.99915C15.692 2.99915 15.5418 3.02993 15.4017 3.08974C15.2616 3.14955 15.1344 3.23721 15.0273 3.3477L7.26984 11.3299C7.18433 11.4177 7.11649 11.522 7.0702 11.6368C7.02392 11.7516 7.00009 11.8747 7.00009 11.999C7.00009 12.1233 7.02392 12.2464 7.0702 12.3612C7.11649 12.476 7.18433 12.5803 7.26984 12.6682L15.0273 20.6503C15.4793 21.1154 16.208 21.1154 16.6599 20.6503C17.1119 20.1853 17.1119 19.4355 16.6599 18.9704L9.88948 12.0038L16.6692 5.02766C17.1119 4.56259 17.1119 3.81277 16.6599 3.3477Z" fill="#D3D3D3"/>
</svg>
